<?xml version="1.0" standalone="no"?>
<!DOCTYPE svg PUBLIC "-//W3C//DTD SVG 20010904//EN"
 "http://www.w3.org/TR/2001/REC-SVG-20010904/DTD/svg10.dtd">
<svg version="1.0" xmlns="http://www.w3.org/2000/svg"
 width="513.000000pt" height="513.000000pt" viewBox="0 0 513.000000 513.000000"
 preserveAspectRatio="xMidYMid meet">
<metadata>
Created by potrace 1.14, written by Peter Selinger 2001-2017
</metadata>
<g transform="translate(0.000000,513.000000) scale(0.100000,-0.100000)"
fill="#000000" stroke="none">
<path d="M2437 5124 c-1 -1 -42 -4 -91 -8 -381 -27 -793 -163 -1131 -374 -257
-160 -476 -358 -683 -618 -86 -107 -223 -334 -290 -479 -98 -214 -185 -499
-207 -680 -4 -27 -8 -57 -10 -65 -10 -38 -19 -188 -19 -325 -2 -246 25 -449
90 -693 112 -414 348 -818 658 -1127 131 -130 332 -293 432 -349 16 -9 52 -31
79 -48 169 -104 418 -208 638 -267 313 -84 666 -107 1006 -65 188 23 423 87
641 174 75 30 291 138 311 156 8 8 19 14 22 14 7 0 147 90 157 100 3 3 21 17
40 30 119 82 312 261 427 395 263 305 452 673 547 1065 26 108 31 130 42 209
4 25 8 54 10 63 24 134 23 514 -1 668 -30 190 -30 188 -60 305 -51 197 -100
324 -199 525 -149 300 -400 609 -671 827 -84 68 -278 203 -291 203 -4 0 -15 6
-23 14 -23 20 -244 129 -336 166 -130 52 -306 107 -400 126 -212 43 -335 56
-543 58 -78 1 -144 1 -145 0z"/>
</g>
</svg>
